<?xml version="1.0" encoding="utf-8"?>
<!-- Generator: Adobe Illustrator 27.7.0, SVG Export Plug-In . SVG Version: 6.00 Build 0)  -->
<svg version="1.0" id="Layer_1" xmlns="http://www.w3.org/2000/svg" xmlns:xlink="http://www.w3.org/1999/xlink" x="0px" y="0px"
	 viewBox="0 0 23.15 15" style="enable-background:new 0 0 23.15 15;" xml:space="preserve">
<style type="text/css">
	.st0{fill:#191919;}
	.st1{fill:none;stroke:#FFFFFF;stroke-miterlimit:10;}
	.st2{fill:url(#SVGID_1_);}
	.st3{fill:none;stroke:url(#SVGID_00000011734004790409916240000005476327740141769648_);stroke-miterlimit:10;}
	.st4{opacity:0.62;}
	.st5{fill:url(#SVGID_00000031172345898450816710000006302152387383047062_);}
	.st6{fill:url(#SVGID_00000121966229494439848380000008596032799728449672_);}
	.st7{fill:url(#SVGID_00000139289515724211484340000016826450011198096020_);}
	.st8{fill:url(#SVGID_00000105403139337885726780000000450873888078305982_);}
	.st9{fill:url(#SVGID_00000067217679428269121790000013212548479412381119_);}
	.st10{fill:url(#SVGID_00000041291885993527018040000003587547022362421154_);}
	.st11{fill:url(#SVGID_00000057826464689333268580000013757581346493386888_);}
	.st12{fill:url(#SVGID_00000082345211216395493580000003219657894641541530_);}
	.st13{fill:url(#SVGID_00000078748579720048404660000013367988260578312856_);}
	.st14{fill:url(#SVGID_00000101789936516983905270000001857962271937157767_);}
	.st15{fill:url(#SVGID_00000111883073506678310110000014224735737450518412_);}
	.st16{fill:url(#SVGID_00000150813742057775441160000003584955595222170769_);}
	.st17{fill:url(#SVGID_00000055681118035798482740000014509133730736500612_);}
	.st18{fill:url(#SVGID_00000152983733001090643630000011380412161841396623_);}
	.st19{fill:url(#SVGID_00000004539634447150747360000006575710374339649209_);}
	.st20{fill:url(#SVGID_00000127731056418525693590000000233167498840676496_);}
	.st21{fill:url(#SVGID_00000042018181920831757150000013119240716877966480_);}
	.st22{fill:url(#SVGID_00000067221264362234434660000017739705413762788497_);}
	.st23{fill:url(#SVGID_00000095330747462346968030000005239515615928326303_);}
	.st24{fill:url(#SVGID_00000167358398357979514340000013663688545818405300_);}
	.st25{fill:url(#SVGID_00000114754835192644976250000008963785104301598378_);}
	.st26{fill:url(#SVGID_00000093865008383923560710000006569297917265412773_);}
	.st27{fill:url(#SVGID_00000010291138259540963440000012956311352475437214_);}
	.st28{fill:url(#SVGID_00000048494519469359867050000010345883760949346202_);}
	.st29{fill:url(#SVGID_00000067939086903908647480000000224952995313002136_);}
	.st30{fill:url(#SVGID_00000097465245072156975870000010346129006721324988_);}
	.st31{fill:url(#SVGID_00000069398729258488240750000005455636418918971320_);}
	.st32{fill:url(#SVGID_00000044173987046427160470000016019953422067574922_);}
	.st33{fill:url(#SVGID_00000060719810889493134070000014591675052118564229_);}
	.st34{fill:url(#SVGID_00000137840373912560836130000000112451846824687023_);}
	.st35{fill:url(#SVGID_00000093151271057795123450000012481784849878372757_);}
	.st36{fill:url(#SVGID_00000145738919190112780560000002020812830556372404_);}
	.st37{fill:url(#SVGID_00000080921260224478734080000006551269365420023970_);}
	.st38{fill:url(#SVGID_00000003820177773706755980000001471484879115762603_);}
	.st39{fill:url(#SVGID_00000109752220068807342800000000781359528569704072_);}
	.st40{fill:url(#SVGID_00000064329544131898164490000001846103775643088258_);}
	.st41{fill:url(#SVGID_00000016075680837976813080000017332862043655419787_);}
	.st42{fill:url(#SVGID_00000168099168888089479780000004926536447067158945_);}
	.st43{fill:url(#SVGID_00000114782690995127319240000007374241716275850381_);}
	.st44{fill:url(#SVGID_00000170971427202328683930000008951742073290137250_);}
	.st45{fill:url(#SVGID_00000005949705472511853820000017187773566160853939_);}
	.st46{fill:url(#SVGID_00000000214843232746295020000016374333058480047498_);}
	.st47{fill:url(#SVGID_00000035494727327258430760000014993323366421734318_);}
	.st48{fill:url(#SVGID_00000119814082783878511620000014062369454182589837_);}
	.st49{fill:url(#SVGID_00000118390730641682630950000002275426186418223279_);}
	.st50{fill:url(#SVGID_00000146463391788365650280000012729354833888133259_);}
	.st51{fill:url(#SVGID_00000139280503993694109350000001666814554342878615_);}
	.st52{fill:url(#SVGID_00000111190111468437288990000017422131218772594080_);}
	.st53{fill:url(#SVGID_00000149342557870166875300000011566118486464351906_);}
	.st54{fill:url(#SVGID_00000127746570651573654010000008186210811672605354_);}
	.st55{fill:url(#SVGID_00000093885312934657895820000012307353123030158980_);}
	.st56{fill:url(#SVGID_00000053535231315569387050000015958065025143507591_);}
	.st57{fill:url(#SVGID_00000072274876822862001300000001010994503193639045_);}
	.st58{fill:url(#SVGID_00000130645371159590863040000005070598142776908695_);}
	.st59{fill:url(#SVGID_00000120560848319856772670000000342788716698758803_);}
	.st60{fill:url(#SVGID_00000087386263120704906120000006514833669600048286_);}
	.st61{fill:url(#SVGID_00000163763575007577127560000010929296594949779335_);}
	.st62{fill:url(#SVGID_00000166639050641333470190000001179608152975649967_);}
	.st63{fill:url(#SVGID_00000039856853388702520450000002478895213854859398_);}
	.st64{fill:url(#SVGID_00000078025085026065985770000010878113616410278319_);}
	.st65{fill:url(#SVGID_00000031180326543062950010000013380335630541761683_);}
	.st66{fill:url(#SVGID_00000068670795652506977340000017417058680549051303_);}
	.st67{fill:url(#SVGID_00000078759809771573400890000010428394468282151575_);}
	.st68{fill:url(#SVGID_00000155829781752653825590000005230763000571607208_);}
	.st69{fill:url(#SVGID_00000059282932304582444300000002457677588925200301_);}
	.st70{fill:url(#SVGID_00000145032540617896437100000004214567116473864889_);}
	.st71{fill:url(#SVGID_00000155139215987885596760000012297841406756774030_);}
	.st72{fill:url(#SVGID_00000054950357544771629810000006098143050188303289_);}
	.st73{fill:url(#SVGID_00000081635808041497976130000008208246655626360216_);}
	.st74{fill:url(#SVGID_00000034064717986698603520000003595979972465052312_);}
	.st75{fill:url(#SVGID_00000061443714168157831100000003305977903141981358_);}
	.st76{fill:url(#SVGID_00000150815048884363026250000004685027870708103592_);}
	.st77{fill:url(#SVGID_00000045588689028796986960000008614002464792764351_);}
	.st78{fill:url(#SVGID_00000026867108278574897350000000472023795249938594_);}
	.st79{fill:url(#SVGID_00000007412792408516942090000014055640152044069512_);}
	.st80{fill:url(#SVGID_00000028317607668751892050000016365818787751906189_);}
	.st81{fill:url(#SVGID_00000105406175203962379650000001097038400447766928_);}
	.st82{fill:url(#SVGID_00000150808942928435246760000005463669697190154144_);}
	.st83{fill:url(#SVGID_00000038410312526338147940000008265736276830314114_);}
	.st84{fill:url(#SVGID_00000116937806984166287110000009868882919730982332_);}
	.st85{fill:url(#SVGID_00000070812813968604009590000013078211055661729168_);}
	.st86{fill:url(#SVGID_00000136405131607749703290000014948887832971102646_);}
	.st87{fill:url(#SVGID_00000041987436408087949460000008602334211638698140_);}
	.st88{fill:url(#SVGID_00000047743824663733680440000003503697933218852523_);}
	.st89{fill:url(#SVGID_00000172413452379134812140000015621480416363783043_);}
	.st90{fill:url(#SVGID_00000075128393697020356390000002235234743294856114_);}
	.st91{fill:url(#SVGID_00000170238548695175313320000011251235423923879075_);}
	.st92{fill:url(#SVGID_00000170240737178252594600000000919234551489291137_);}
	.st93{fill:url(#SVGID_00000125577347136915747790000004936713875774688142_);}
	.st94{fill:url(#SVGID_00000152950334989211711870000018411619883264766868_);}
	.st95{fill:url(#SVGID_00000013876816094818617970000011335101902090243983_);}
	.st96{fill:url(#SVGID_00000028324231264728751200000008736885853010651539_);}
	.st97{fill:url(#SVGID_00000079449331527975273500000005008958000935315365_);}
	.st98{fill:url(#SVGID_00000168795726157013664910000012022611214668314534_);}
	.st99{fill:url(#SVGID_00000134238224123585603200000001163144352581032101_);}
	.st100{fill:url(#SVGID_00000145059675197300051340000006522956905269077926_);}
	
		.st101{fill:#191919;stroke:url(#SVGID_00000101072115497145398490000009514690031191345303_);stroke-width:0.5;stroke-linecap:round;stroke-linejoin:round;stroke-miterlimit:10;}
	.st102{fill:none;stroke:url(#SVGID_00000052813716505578161650000017474875964041615517_);stroke-miterlimit:10;}
	.st103{fill:none;stroke:url(#SVGID_00000021114605300890184100000010219088554163478403_);stroke-miterlimit:10;}
	.st104{fill:#FFFFFF;}
	.st105{clip-path:url(#SVGID_00000024705152717673534390000012558356431026341006_);}
	.st106{fill-rule:evenodd;clip-rule:evenodd;fill:#FFFFFF;}
	.st107{clip-path:url(#SVGID_00000083802335198846580020000006751952836679168169_);}
	.st108{fill:none;stroke:url(#SVGID_00000086676562830918617010000011253776416732433063_);stroke-miterlimit:10;}
	.st109{fill:none;stroke:url(#SVGID_00000005262029859088797970000013367378646957519279_);stroke-miterlimit:10;}
	.st110{fill:none;stroke:url(#SVGID_00000089555573414972172100000008837334189158711740_);stroke-miterlimit:10;}
	.st111{fill:none;stroke:url(#SVGID_00000105417547371100559880000002693634566460544423_);stroke-miterlimit:10;}
	.st112{opacity:0.37;}
	.st113{fill:url(#SVGID_00000109717623407024779130000004810189134338233755_);}
	.st114{fill:url(#SVGID_00000044176247593604808180000002372780888503747983_);}
	.st115{fill:url(#SVGID_00000049218808380142424690000000399049806221601192_);}
	.st116{fill:url(#SVGID_00000134220799407446660410000011294281200369045431_);}
	.st117{fill:url(#SVGID_00000158730542475250805390000006160542911111341447_);}
	.st118{fill:url(#SVGID_00000113330027097137112920000016275287160654070673_);}
	.st119{fill:url(#SVGID_00000042724949910357407730000012611173762534131869_);}
	.st120{fill:url(#SVGID_00000148646072017252888850000005453638461605118630_);}
	.st121{fill:url(#SVGID_00000128462176294155294960000006893414485086988681_);}
	.st122{fill:url(#SVGID_00000023987273400950055230000017702253430092880298_);}
	.st123{fill:url(#SVGID_00000080893993087746664610000014441137784566706863_);}
	.st124{fill:url(#SVGID_00000086673160951810761570000013892516029611165593_);}
	.st125{fill:url(#SVGID_00000170250392656953034420000007813601978345433519_);}
	.st126{fill:url(#SVGID_00000183245005145972330670000009010123277538539432_);}
	.st127{fill:url(#SVGID_00000111151056290700814690000008610197656374077073_);}
	.st128{fill:url(#SVGID_00000129190241133026572750000006677783594611285908_);}
	.st129{fill:url(#SVGID_00000148633558436903429170000003111364630736094880_);}
	.st130{fill:url(#SVGID_00000127023846238910481050000006409125364639927681_);}
	.st131{fill:url(#SVGID_00000077320797758962063510000011668459375513602453_);}
	.st132{fill:url(#SVGID_00000170247557403719490130000005832032816123026051_);}
	.st133{fill:url(#SVGID_00000003785957902191726110000013768562341418038948_);}
	.st134{fill:url(#SVGID_00000036960159962690524790000006557347704471871166_);}
	.st135{fill:url(#SVGID_00000064337877356481276370000003593772480626546859_);}
	.st136{fill:url(#SVGID_00000088837559695871721540000015849213969585924503_);}
	.st137{fill:url(#SVGID_00000164493045804074101490000014773533244660549287_);}
	.st138{fill:url(#SVGID_00000141420617546017272140000004081511409633292438_);}
	.st139{fill:url(#SVGID_00000083810015280383541330000013013877813641698698_);}
	.st140{fill:url(#SVGID_00000079460958538923194080000007934719525819334016_);}
	.st141{fill:url(#SVGID_00000067956959179606226160000005723906178198867350_);}
	.st142{fill:url(#SVGID_00000150095839406312227460000017613004597197990040_);}
	.st143{fill:url(#SVGID_00000067224869213403590570000014348105864898100150_);}
	.st144{fill:url(#SVGID_00000124884346935306031460000013107899642193639611_);}
	.st145{fill:url(#SVGID_00000063629053492625191690000009394600317212867972_);}
	.st146{fill:url(#SVGID_00000023959446407485056950000017977560317365126840_);}
	.st147{fill:none;stroke:url(#SVGID_00000141436321533184179240000012096974923078800028_);stroke-miterlimit:10;}
	.st148{clip-path:url(#SVGID_00000029037662343627749160000011668386257098845093_);}
	.st149{fill:none;stroke:url(#SVGID_00000101785702169365927190000006030400051618459794_);stroke-miterlimit:10;}
	.st150{fill:none;stroke:url(#SVGID_00000121998427996272559170000006188572166478195377_);stroke-miterlimit:10;}
	.st151{fill:none;stroke:url(#SVGID_00000085942952810585900320000014848037740243643802_);stroke-miterlimit:10;}
	
		.st152{fill-rule:evenodd;clip-rule:evenodd;fill:#181818;stroke:url(#SVGID_00000157998905970003161380000006009375210994519709_);stroke-width:0.75;stroke-miterlimit:10;}
	
		.st153{fill-rule:evenodd;clip-rule:evenodd;fill:#181818;stroke:url(#SVGID_00000139295738040195558600000012182506108472938130_);stroke-width:0.75;stroke-miterlimit:10;}
	
		.st154{fill-rule:evenodd;clip-rule:evenodd;fill:#181818;stroke:url(#SVGID_00000086681445615110822380000017666439161607540369_);stroke-width:0.75;stroke-miterlimit:10;}
	
		.st155{fill-rule:evenodd;clip-rule:evenodd;fill:#181818;stroke:url(#SVGID_00000054266938724411094250000000953643688457640630_);stroke-width:0.75;stroke-miterlimit:10;}
	
		.st156{fill-rule:evenodd;clip-rule:evenodd;fill:#181818;stroke:url(#SVGID_00000150810191736798332250000003540677709958286771_);stroke-width:0.75;stroke-miterlimit:10;}
	
		.st157{fill-rule:evenodd;clip-rule:evenodd;fill:#181818;stroke:url(#SVGID_00000101101431443931302180000015826514697572398754_);stroke-width:0.75;stroke-miterlimit:10;}
	
		.st158{fill-rule:evenodd;clip-rule:evenodd;fill:#181818;stroke:url(#SVGID_00000119109776758721394310000001102782629014608044_);stroke-width:0.75;stroke-miterlimit:10;}
	
		.st159{fill-rule:evenodd;clip-rule:evenodd;fill:#181818;stroke:url(#SVGID_00000004538744497191285070000005012594507147206055_);stroke-width:0.75;stroke-miterlimit:10;}
	
		.st160{fill-rule:evenodd;clip-rule:evenodd;fill:#181818;stroke:url(#SVGID_00000002352517215931739740000000126156429838635199_);stroke-width:0.75;stroke-miterlimit:10;}
	
		.st161{fill-rule:evenodd;clip-rule:evenodd;fill:#181818;stroke:url(#SVGID_00000183246843512120777930000008270400138152440759_);stroke-width:0.75;stroke-miterlimit:10;}
	
		.st162{fill-rule:evenodd;clip-rule:evenodd;fill:#181818;stroke:url(#SVGID_00000144327683127825454470000003063450785780238240_);stroke-width:0.75;stroke-miterlimit:10;}
	
		.st163{fill-rule:evenodd;clip-rule:evenodd;fill:#181818;stroke:url(#SVGID_00000015349788563065207240000014807601543288640673_);stroke-width:0.75;stroke-miterlimit:10;}
	
		.st164{fill-rule:evenodd;clip-rule:evenodd;fill:#181818;stroke:url(#SVGID_00000141441592229818710250000015396831531798540222_);stroke-width:0.75;stroke-miterlimit:10;}
	
		.st165{fill-rule:evenodd;clip-rule:evenodd;fill:#181818;stroke:url(#SVGID_00000141435277262769609710000011353363527637190819_);stroke-width:0.75;stroke-miterlimit:10;}
	
		.st166{fill-rule:evenodd;clip-rule:evenodd;fill:#181818;stroke:url(#SVGID_00000087376586526971549460000018123065445948149383_);stroke-width:0.75;stroke-miterlimit:10;}
	
		.st167{fill-rule:evenodd;clip-rule:evenodd;fill:#181818;stroke:url(#SVGID_00000155862378211433660030000009343678600583922598_);stroke-width:0.75;stroke-miterlimit:10;}
	
		.st168{fill-rule:evenodd;clip-rule:evenodd;fill:#181818;stroke:url(#SVGID_00000090263274134652753890000003520273626596782260_);stroke-width:0.75;stroke-miterlimit:10;}
	
		.st169{fill-rule:evenodd;clip-rule:evenodd;fill:#181818;stroke:url(#SVGID_00000065042821777464050780000009549396918692040330_);stroke-width:0.75;stroke-miterlimit:10;}
	
		.st170{fill-rule:evenodd;clip-rule:evenodd;fill:#181818;stroke:url(#SVGID_00000088833091404492294660000016152766857884677517_);stroke-width:0.75;stroke-miterlimit:10;}
	
		.st171{fill-rule:evenodd;clip-rule:evenodd;fill:#181818;stroke:url(#SVGID_00000072275050407414920410000008152107155818081159_);stroke-width:0.75;stroke-miterlimit:10;}
	
		.st172{fill-rule:evenodd;clip-rule:evenodd;fill:#181818;stroke:url(#SVGID_00000018927349346494540090000018406295649912475315_);stroke-width:0.75;stroke-miterlimit:10;}
	
		.st173{fill-rule:evenodd;clip-rule:evenodd;fill:#181818;stroke:url(#SVGID_00000146483377227894198640000015751433120868076201_);stroke-width:0.75;stroke-miterlimit:10;}
	
		.st174{fill-rule:evenodd;clip-rule:evenodd;fill:#181818;stroke:url(#SVGID_00000096760095994622664760000008220015253713367738_);stroke-width:0.75;stroke-miterlimit:10;}
	
		.st175{fill-rule:evenodd;clip-rule:evenodd;fill:#181818;stroke:url(#SVGID_00000148630351733332679910000007186908314967326647_);stroke-width:0.75;stroke-miterlimit:10;}
	
		.st176{fill-rule:evenodd;clip-rule:evenodd;fill:#181818;stroke:url(#SVGID_00000026869707747376044260000005041060583059345599_);stroke-width:0.75;stroke-miterlimit:10;}
	
		.st177{fill-rule:evenodd;clip-rule:evenodd;fill:#181818;stroke:url(#SVGID_00000034050097119373406030000004483132233789461693_);stroke-width:0.75;stroke-miterlimit:10;}
	
		.st178{fill-rule:evenodd;clip-rule:evenodd;fill:#181818;stroke:url(#SVGID_00000010310633616615423960000001363652681803141559_);stroke-width:0.75;stroke-miterlimit:10;}
	
		.st179{fill-rule:evenodd;clip-rule:evenodd;fill:#181818;stroke:url(#SVGID_00000147905621137765400660000003409881396485450394_);stroke-width:0.75;stroke-miterlimit:10;}
	
		.st180{fill-rule:evenodd;clip-rule:evenodd;fill:#181818;stroke:url(#SVGID_00000037664097279060757550000010149823161044075692_);stroke-width:0.75;stroke-miterlimit:10;}
	
		.st181{fill-rule:evenodd;clip-rule:evenodd;fill:#181818;stroke:url(#SVGID_00000182524052039831283210000003990400372363746207_);stroke-width:0.75;stroke-miterlimit:10;}
	
		.st182{fill-rule:evenodd;clip-rule:evenodd;fill:#181818;stroke:url(#SVGID_00000101095482897499620510000009857914420879401356_);stroke-width:0.75;stroke-miterlimit:10;}
	
		.st183{fill-rule:evenodd;clip-rule:evenodd;fill:#181818;stroke:url(#SVGID_00000002358270647834479900000003925054949018137772_);stroke-width:0.75;stroke-miterlimit:10;}
	
		.st184{fill-rule:evenodd;clip-rule:evenodd;fill:#181818;stroke:url(#SVGID_00000115478138469199973960000005572756660918930328_);stroke-width:0.75;stroke-miterlimit:10;}
	
		.st185{fill-rule:evenodd;clip-rule:evenodd;fill:#181818;stroke:url(#SVGID_00000158000453919895499050000017042580592050785945_);stroke-width:0.75;stroke-miterlimit:10;}
	
		.st186{fill-rule:evenodd;clip-rule:evenodd;fill:#181818;stroke:url(#SVGID_00000127011621585127767430000013168880960335302528_);stroke-width:0.75;stroke-miterlimit:10;}
	
		.st187{fill-rule:evenodd;clip-rule:evenodd;fill:#181818;stroke:url(#SVGID_00000098933901324237280670000006104244579816067224_);stroke-width:0.75;stroke-miterlimit:10;}
	
		.st188{fill-rule:evenodd;clip-rule:evenodd;fill:#181818;stroke:url(#SVGID_00000056427933357803115270000003439598869543534764_);stroke-width:0.75;stroke-miterlimit:10;}
	
		.st189{fill-rule:evenodd;clip-rule:evenodd;fill:#181818;stroke:url(#SVGID_00000136381701513516335750000001094348166160349569_);stroke-width:0.75;stroke-miterlimit:10;}
	
		.st190{fill-rule:evenodd;clip-rule:evenodd;fill:#181818;stroke:url(#SVGID_00000145762430714759232900000011808136648336750745_);stroke-width:0.75;stroke-miterlimit:10;}
	
		.st191{fill-rule:evenodd;clip-rule:evenodd;fill:#181818;stroke:url(#SVGID_00000069373012371581730630000008940782316446633895_);stroke-width:0.75;stroke-miterlimit:10;}
	
		.st192{fill-rule:evenodd;clip-rule:evenodd;fill:#181818;stroke:url(#SVGID_00000131341359296031713770000013313569691345477266_);stroke-width:0.75;stroke-miterlimit:10;}
	
		.st193{fill-rule:evenodd;clip-rule:evenodd;fill:#181818;stroke:url(#SVGID_00000114792689696456645440000001743272300520881810_);stroke-width:0.75;stroke-miterlimit:10;}
	
		.st194{fill-rule:evenodd;clip-rule:evenodd;fill:#181818;stroke:url(#SVGID_00000031170871611920103980000000403906118163977364_);stroke-width:0.75;stroke-miterlimit:10;}
	
		.st195{fill-rule:evenodd;clip-rule:evenodd;fill:#181818;stroke:url(#SVGID_00000168100484305958991240000009159579428172980384_);stroke-width:0.75;stroke-miterlimit:10;}
	
		.st196{fill-rule:evenodd;clip-rule:evenodd;fill:#181818;stroke:url(#SVGID_00000105423757421504589210000006893438679277771658_);stroke-width:0.75;stroke-miterlimit:10;}
	
		.st197{fill-rule:evenodd;clip-rule:evenodd;fill:#181818;stroke:url(#SVGID_00000047760511994043472620000009173215492778944175_);stroke-width:0.75;stroke-miterlimit:10;}
	
		.st198{fill-rule:evenodd;clip-rule:evenodd;fill:#181818;stroke:url(#SVGID_00000023261691413743909490000017938446352542370477_);stroke-width:0.75;stroke-miterlimit:10;}
	
		.st199{fill-rule:evenodd;clip-rule:evenodd;fill:#181818;stroke:url(#SVGID_00000152266368418077591450000012616829921952788127_);stroke-width:0.75;stroke-miterlimit:10;}
	
		.st200{fill-rule:evenodd;clip-rule:evenodd;fill:#181818;stroke:url(#SVGID_00000176728519130778067590000012713149037095127175_);stroke-width:0.75;stroke-miterlimit:10;}
	
		.st201{fill-rule:evenodd;clip-rule:evenodd;fill:#181818;stroke:url(#SVGID_00000015325365864827733740000015258457031639283843_);stroke-width:0.75;stroke-miterlimit:10;}
	
		.st202{fill-rule:evenodd;clip-rule:evenodd;fill:#181818;stroke:url(#SVGID_00000047766767542123200340000006297754834104674233_);stroke-width:0.75;stroke-miterlimit:10;}
	
		.st203{fill-rule:evenodd;clip-rule:evenodd;fill:#181818;stroke:url(#SVGID_00000141434473168539400070000011146316453925716380_);stroke-width:0.75;stroke-miterlimit:10;}
	
		.st204{fill-rule:evenodd;clip-rule:evenodd;fill:#181818;stroke:url(#SVGID_00000025429727912032472810000000275964663664778406_);stroke-width:0.75;stroke-miterlimit:10;}
	
		.st205{fill-rule:evenodd;clip-rule:evenodd;fill:#181818;stroke:url(#SVGID_00000181051803704158627620000006583135940815947401_);stroke-width:0.75;stroke-miterlimit:10;}
	
		.st206{fill-rule:evenodd;clip-rule:evenodd;fill:#181818;stroke:url(#SVGID_00000008859003031528218120000003733694292925325957_);stroke-width:0.75;stroke-miterlimit:10;}
	
		.st207{fill-rule:evenodd;clip-rule:evenodd;fill:#181818;stroke:url(#SVGID_00000023250568608591343710000003328530000698441111_);stroke-width:0.75;stroke-miterlimit:10;}
	
		.st208{fill-rule:evenodd;clip-rule:evenodd;fill:#181818;stroke:url(#SVGID_00000154410069999377726890000016602559451183503800_);stroke-width:0.75;stroke-miterlimit:10;}
	
		.st209{fill-rule:evenodd;clip-rule:evenodd;fill:#181818;stroke:url(#SVGID_00000015336813886195289340000016745485340051540369_);stroke-width:0.75;stroke-miterlimit:10;}
	
		.st210{fill-rule:evenodd;clip-rule:evenodd;fill:#181818;stroke:url(#SVGID_00000142143394633800707410000011613736189063731877_);stroke-width:0.75;stroke-miterlimit:10;}
	
		.st211{fill-rule:evenodd;clip-rule:evenodd;fill:#181818;stroke:url(#SVGID_00000128474698857274155650000018367469152721582012_);stroke-width:0.75;stroke-miterlimit:10;}
	
		.st212{fill-rule:evenodd;clip-rule:evenodd;fill:#181818;stroke:url(#SVGID_00000049914667688130361720000012180807883118954651_);stroke-width:0.75;stroke-miterlimit:10;}
	
		.st213{fill-rule:evenodd;clip-rule:evenodd;fill:#181818;stroke:url(#SVGID_00000011016097377271434550000010821018501926108828_);stroke-width:0.75;stroke-miterlimit:10;}
	
		.st214{fill-rule:evenodd;clip-rule:evenodd;fill:#181818;stroke:url(#SVGID_00000132054264661916558890000004731868956665457034_);stroke-width:0.75;stroke-miterlimit:10;}
	
		.st215{fill-rule:evenodd;clip-rule:evenodd;fill:#181818;stroke:url(#SVGID_00000177485992583939689330000008848179268057568690_);stroke-width:0.75;stroke-miterlimit:10;}
	
		.st216{fill-rule:evenodd;clip-rule:evenodd;fill:#181818;stroke:url(#SVGID_00000055698607853668174750000006233779866197972908_);stroke-width:0.75;stroke-miterlimit:10;}
	
		.st217{fill-rule:evenodd;clip-rule:evenodd;fill:#181818;stroke:url(#SVGID_00000049944809077548445090000018343684499666962872_);stroke-width:0.75;stroke-miterlimit:10;}
	
		.st218{fill-rule:evenodd;clip-rule:evenodd;fill:#181818;stroke:url(#SVGID_00000133496021772184540560000010249353152426190011_);stroke-width:0.75;stroke-miterlimit:10;}
	
		.st219{fill-rule:evenodd;clip-rule:evenodd;fill:#181818;stroke:url(#SVGID_00000013886540271532484140000015569605995006478987_);stroke-width:0.75;stroke-miterlimit:10;}
	
		.st220{fill-rule:evenodd;clip-rule:evenodd;fill:#181818;stroke:url(#SVGID_00000040562937445482001080000015312184514276060319_);stroke-width:0.75;stroke-miterlimit:10;}
	
		.st221{fill-rule:evenodd;clip-rule:evenodd;fill:#181818;stroke:url(#SVGID_00000005956822847808586910000003690669037923224232_);stroke-width:0.75;stroke-miterlimit:10;}
	
		.st222{fill-rule:evenodd;clip-rule:evenodd;fill:#181818;stroke:url(#SVGID_00000109003369771369582590000002679435424607805857_);stroke-width:0.75;stroke-miterlimit:10;}
	
		.st223{fill-rule:evenodd;clip-rule:evenodd;fill:#181818;stroke:url(#SVGID_00000065038714935404897650000004678008347665617343_);stroke-width:0.75;stroke-miterlimit:10;}
	
		.st224{fill-rule:evenodd;clip-rule:evenodd;fill:#181818;stroke:url(#SVGID_00000128473732141379201490000001946981778273094059_);stroke-width:0.75;stroke-miterlimit:10;}
	
		.st225{fill-rule:evenodd;clip-rule:evenodd;fill:#181818;stroke:url(#SVGID_00000029016899724601315480000008413849603653191585_);stroke-width:0.75;stroke-miterlimit:10;}
	
		.st226{fill-rule:evenodd;clip-rule:evenodd;fill:#181818;stroke:url(#SVGID_00000100372803811932919890000004119489083893219513_);stroke-width:0.75;stroke-miterlimit:10;}
	
		.st227{fill-rule:evenodd;clip-rule:evenodd;fill:#181818;stroke:url(#SVGID_00000118399319529079128650000018209915438545372593_);stroke-width:0.75;stroke-miterlimit:10;}
	
		.st228{fill-rule:evenodd;clip-rule:evenodd;fill:#181818;stroke:url(#SVGID_00000132065480962911801350000014050564756667421869_);stroke-width:0.75;stroke-miterlimit:10;}
	
		.st229{fill-rule:evenodd;clip-rule:evenodd;fill:#181818;stroke:url(#SVGID_00000126286196604337765800000013421778416650665866_);stroke-width:0.75;stroke-miterlimit:10;}
	
		.st230{fill-rule:evenodd;clip-rule:evenodd;fill:#181818;stroke:url(#SVGID_00000044870046484885419720000013550276503720522652_);stroke-width:0.75;stroke-miterlimit:10;}
	
		.st231{fill-rule:evenodd;clip-rule:evenodd;fill:#181818;stroke:url(#SVGID_00000061445288410807658050000012334757620458830783_);stroke-width:0.75;stroke-miterlimit:10;}
	
		.st232{fill-rule:evenodd;clip-rule:evenodd;fill:#181818;stroke:url(#SVGID_00000059306829628290085200000016816670127016132754_);stroke-width:0.75;stroke-miterlimit:10;}
	
		.st233{fill-rule:evenodd;clip-rule:evenodd;fill:#181818;stroke:url(#SVGID_00000066515964858584174770000007479565759139699355_);stroke-width:0.75;stroke-miterlimit:10;}
	
		.st234{fill-rule:evenodd;clip-rule:evenodd;fill:#181818;stroke:url(#SVGID_00000111875095526847255020000017681075395759915662_);stroke-width:0.75;stroke-miterlimit:10;}
	
		.st235{fill-rule:evenodd;clip-rule:evenodd;fill:#181818;stroke:url(#SVGID_00000108998510796013426590000000606876191979579282_);stroke-width:0.75;stroke-miterlimit:10;}
	
		.st236{fill-rule:evenodd;clip-rule:evenodd;fill:#181818;stroke:url(#SVGID_00000152958207839056145210000018292016158810553767_);stroke-width:0.75;stroke-miterlimit:10;}
	
		.st237{fill-rule:evenodd;clip-rule:evenodd;fill:#181818;stroke:url(#SVGID_00000085943243585838341800000004826846094155504552_);stroke-width:0.75;stroke-miterlimit:10;}
	
		.st238{fill-rule:evenodd;clip-rule:evenodd;fill:#181818;stroke:url(#SVGID_00000168823660323226246500000006170894561709500557_);stroke-width:0.75;stroke-miterlimit:10;}
	
		.st239{fill-rule:evenodd;clip-rule:evenodd;fill:#181818;stroke:url(#SVGID_00000136402291952582619280000004021084161222703519_);stroke-width:0.75;stroke-miterlimit:10;}
	
		.st240{fill-rule:evenodd;clip-rule:evenodd;fill:#181818;stroke:url(#SVGID_00000144313643566223605220000000164047006828828583_);stroke-width:0.75;stroke-miterlimit:10;}
	
		.st241{fill-rule:evenodd;clip-rule:evenodd;fill:#181818;stroke:url(#SVGID_00000021826772629134500940000000324540146950555831_);stroke-width:0.75;stroke-miterlimit:10;}
	.st242{fill:#181818;stroke:url(#SVGID_00000135654786925192416490000003873184003664870830_);stroke-miterlimit:10;}
	.st243{fill:#181818;stroke:url(#SVGID_00000026842742941083341360000001508427580638804374_);stroke-miterlimit:10;}
	.st244{opacity:0.37;fill:#FFFFFF;}
	.st245{fill:url(#SVGID_00000013879402773206879720000007540637194223395202_);}
	.st246{fill:url(#SVGID_00000038400311351883391330000000399213385989484708_);}
	.st247{fill:url(#SVGID_00000031916942099695950030000004706479305185599148_);}
	.st248{fill:url(#SVGID_00000014632448854779692200000009215098411885218944_);}
	.st249{fill:url(#SVGID_00000118364008831017551860000007262937751158526357_);}
	.st250{fill:url(#SVGID_00000098201648832538666710000005582462707558079912_);}
	.st251{fill:url(#SVGID_00000038406736653491140430000016725658090409212560_);}
	.st252{fill:url(#SVGID_00000178895717575143667590000001773753734126464435_);}
	.st253{fill:url(#SVGID_00000090263334458493157080000001328365536708630186_);}
	.st254{fill:url(#SVGID_00000035506009946374937800000007041380464754408361_);}
	.st255{fill:url(#SVGID_00000067225766638569060240000000681890842070248836_);}
	.st256{fill:url(#SVGID_00000172437265825396760180000016040802664776121730_);}
	.st257{fill:url(#SVGID_00000183971006992956676560000013375703477465665963_);}
	.st258{fill:url(#SVGID_00000070096027376500557000000015440565969888825223_);}
	.st259{fill:url(#SVGID_00000047775963370637781730000017178181687801509560_);}
	.st260{fill:url(#SVGID_00000025433633332866207590000012899375416586525084_);}
	.st261{fill:url(#SVGID_00000097458790649439959380000003495376250247712447_);}
	.st262{fill:url(#SVGID_00000140731977899055720200000006942749086587655842_);}
	.st263{fill:url(#SVGID_00000083052203495244787600000005766667013818532737_);}
	.st264{fill:url(#SVGID_00000155111009910901686230000017737594704378599588_);}
	.st265{fill:url(#SVGID_00000006684602648058220960000012216680456837610400_);}
	.st266{fill:url(#SVGID_00000175312906575156070940000006720430857783471543_);}
	.st267{fill:url(#SVGID_00000120536941018240282430000005695207841285499010_);}
	.st268{fill:url(#SVGID_00000100371502813262782360000015349306678129790876_);}
	.st269{fill:url(#SVGID_00000079444508043390452570000009325715451798231426_);}
	.st270{fill:url(#SVGID_00000022559207932977412920000016460361168542007713_);}
	.st271{fill:url(#SVGID_00000076605383743925303040000004700857712131490456_);}
	.st272{fill:url(#SVGID_00000101792859568702079770000014207758875275069579_);}
	.st273{fill:url(#SVGID_00000057130006683933207500000017384075734496054184_);}
	.st274{fill:none;stroke:url(#SVGID_00000134954394854009509090000002097965493596182675_);stroke-miterlimit:10;}
	.st275{fill:none;stroke:url(#SVGID_00000043436664186903928900000002019542495946129305_);stroke-miterlimit:10;}
	.st276{fill:none;stroke:url(#SVGID_00000103255251973952466980000017350384086896583076_);stroke-miterlimit:10;}
	.st277{opacity:0.65;}
	.st278{clip-path:url(#SVGID_00000049925272963645449400000012390189381120044452_);fill:#FFFFFF;}
	.st279{clip-path:url(#SVGID_00000121273171089919232460000014614851959897029033_);fill:#FFFFFF;}
	.st280{clip-path:url(#SVGID_00000048502269237766774380000002451472288810513319_);fill:#FFFFFF;}
	.st281{clip-path:url(#SVGID_00000097469944201789825160000013219139762815006140_);fill:#FFFFFF;}
	
		.st282{fill:#191919;stroke:url(#SVGID_00000060747029517588260260000000366263977145128838_);stroke-width:0.75;stroke-miterlimit:10;}
	.st283{fill:none;stroke:#FFFFFF;stroke-width:0.5;stroke-miterlimit:10;}
	.st284{fill:none;stroke:url(#SVGID_00000101792411286237114630000016159987219708162467_);stroke-miterlimit:10;}
	.st285{fill:none;stroke:url(#SVGID_00000054988468629342137180000004706795701749218966_);stroke-miterlimit:10;}
	.st286{fill:url(#SVGID_00000127753570589178220130000012775155119186476975_);}
	.st287{fill:url(#SVGID_00000139277099646877440000000017153712427704038281_);}
	.st288{fill:url(#SVGID_00000151536570595402367140000005118854339075746463_);}
	.st289{fill:url(#SVGID_00000003095426673320578000000012207925846857494665_);}
	.st290{fill:url(#SVGID_00000129891743540565049010000012695636279501811129_);}
	.st291{fill:url(#SVGID_00000002350719032058333570000014416501501850092978_);}
	.st292{fill:url(#SVGID_00000058553490320769870920000011219254821603851960_);}
	.st293{fill:url(#SVGID_00000060732928857444424490000012583411967063922060_);}
	.st294{fill:url(#SVGID_00000164500219301761846400000000607467424589069502_);}
	.st295{fill:url(#SVGID_00000022561453605702271960000013136266269303211423_);}
	.st296{fill:url(#SVGID_00000085225826223418081890000009038207835757590710_);}
	.st297{fill:url(#SVGID_00000119819547167171033720000018337461125444925327_);}
	.st298{fill:url(#SVGID_00000024682398406541243850000002434365729438261906_);}
	.st299{fill:url(#SVGID_00000022535440147589548660000000794388559144731277_);}
	.st300{fill:url(#SVGID_00000009578034721283847380000002689330591371692221_);}
	.st301{fill:url(#SVGID_00000034809123748599070310000013587800372252047496_);}
	.st302{fill:url(#SVGID_00000116919133557447687370000001458049794679569306_);}
	.st303{fill:url(#SVGID_00000111174012675000727060000009171013461589742478_);}
	.st304{fill:url(#SVGID_00000094606347916372706790000005450874785157912760_);}
	.st305{fill:url(#SVGID_00000165939324756804294000000010468267595308709520_);}
	.st306{fill:url(#SVGID_00000052092219411526664540000000016285371067149698_);}
	.st307{fill:url(#SVGID_00000028297112956671367220000015673400758181279896_);}
	.st308{fill:url(#SVGID_00000132047752843628219220000000905189597486144661_);}
	.st309{fill:url(#SVGID_00000027562755495802262010000000536969358912084113_);}
	.st310{fill:url(#SVGID_00000012451293089408673730000007398979747582730907_);}
	.st311{fill:url(#SVGID_00000005966065827244158910000013791729292200541579_);}
	.st312{fill:url(#SVGID_00000181788351361826505610000007223470084218367123_);}
	.st313{fill:url(#SVGID_00000137115044376694705470000017368155660611552423_);}
	.st314{fill:url(#SVGID_00000157282321137738086350000012288405459170737794_);}
	.st315{fill:url(#SVGID_00000071537053008614881660000012344532497140374970_);}
	.st316{fill:url(#SVGID_00000012436908728673250240000004261399593401064610_);}
	.st317{fill:url(#SVGID_00000094593500978660943630000000494350396864398475_);}
	
		.st318{fill:#191919;stroke:url(#SVGID_00000053546458185131039780000015714905918268144282_);stroke-width:0.75;stroke-miterlimit:10;}
	.st319{fill:none;stroke:url(#SVGID_00000005254933963045074750000011916908327751917710_);stroke-miterlimit:10;}
	.st320{fill:#181818;stroke:url(#SVGID_00000002348470704714552740000010244061273889483944_);stroke-miterlimit:10;}
	.st321{fill:#181818;stroke:url(#SVGID_00000154421676417718300020000008854108046911227551_);stroke-miterlimit:10;}
	
		.st322{clip-path:url(#SVGID_00000124131771183198993550000016373651973312171914_);fill:#191919;stroke:url(#SVGID_00000120544179813407638280000001898544368755000717_);stroke-width:0.75;stroke-miterlimit:10;}
	.st323{fill:none;stroke:url(#SVGID_00000036235118943381420170000010840137250528656516_);stroke-miterlimit:10;}
	.st324{fill:none;stroke:url(#SVGID_00000039119676181844611960000001928016503633450920_);stroke-miterlimit:10;}
	.st325{fill:none;stroke:url(#SVGID_00000091700657001407470950000016364461920698429622_);stroke-miterlimit:10;}
	.st326{fill:none;stroke:url(#SVGID_00000176753966817067496070000017007196482595950513_);stroke-miterlimit:10;}
	.st327{fill:url(#SVGID_00000065032769418574300650000013617761512571446961_);}
	.st328{fill:url(#SVGID_00000003792626283406954090000016418855244575155133_);}
	.st329{fill:url(#SVGID_00000178897958989653437830000014051559462360599200_);}
	.st330{fill:url(#SVGID_00000134235298710120787990000010745919398937264295_);}
	.st331{fill:url(#SVGID_00000099640829317812951140000000285601418066537396_);}
	.st332{fill:url(#SVGID_00000060728733472902787840000008667995739850551983_);}
	.st333{fill:url(#SVGID_00000143582383397855199520000013443575180813397439_);}
	.st334{fill:url(#SVGID_00000032623062080669260570000005277070564814280615_);}
	.st335{fill:url(#SVGID_00000163035530265784958440000010649795776121797262_);}
	.st336{fill:url(#SVGID_00000177474982266254733100000002651515314410103986_);}
	.st337{fill:url(#SVGID_00000106112979587964389690000017791756265808617910_);}
	.st338{fill:url(#SVGID_00000116931622725123290580000002472877712564470964_);}
	.st339{fill:url(#SVGID_00000178167360430376361620000017553082976201476020_);}
	.st340{fill:url(#SVGID_00000071531380164403380980000004462310746569263255_);}
	.st341{fill:url(#SVGID_00000032634067074024351440000009503153912376766627_);}
	.st342{fill:url(#SVGID_00000156560957362062737780000012516756786734662828_);}
	.st343{fill:url(#SVGID_00000000187736832210321380000008794925614468966831_);}
	.st344{fill:url(#SVGID_00000133525742534355328490000000418867119212068030_);}
	.st345{fill:url(#SVGID_00000019668841304653475600000004191853735306816432_);}
	.st346{fill:url(#SVGID_00000049939761959541097480000014364546260432229250_);}
	.st347{fill:url(#SVGID_00000028294466463452428730000012601597384848804514_);}
	.st348{fill:url(#SVGID_00000133501309314735611280000007027622757605014424_);}
	.st349{fill:url(#SVGID_00000020385954026583247380000017272626821109579932_);}
	.st350{fill:url(#SVGID_00000129179566172570649290000010737449640239708561_);}
	.st351{fill:url(#SVGID_00000098923940806081452810000004077661031877106878_);}
	.st352{fill:url(#SVGID_00000133488010647248387350000012289807466219623603_);}
	.st353{fill:url(#SVGID_00000129924259586712796250000001671450911655341239_);}
	.st354{fill:url(#SVGID_00000029724317102932169530000015415230350579823240_);}
	.st355{fill:url(#SVGID_00000016037409086703094380000009056841536485686404_);}
	.st356{fill:url(#SVGID_00000073719467896844616260000016471273250824418742_);}
	.st357{fill:url(#SVGID_00000119820249937104747040000003248780444292282523_);}
	.st358{fill:url(#SVGID_00000062172867492230763270000006717133997672831412_);}
	.st359{fill:url(#SVGID_00000121247575681307268320000009785157322541340302_);}
	.st360{fill:url(#SVGID_00000011719441043064410260000012886284153346988209_);}
	.st361{fill:none;stroke:url(#SVGID_00000152265545955718588400000000599838753647361179_);stroke-miterlimit:10;}
</style>
<g>
	<path class="st104" d="M22.63,2.15c0.11-0.08,0.21-0.16,0.33-0.24c0.06,0.16,0.1,0.29,0.15,0.42c0.01,0.6,0.02,1.19,0.03,1.79
		c0,0.8-0.01,1.6-0.01,2.39c0,0.2,0.01,0.4,0.01,0.59c0,0.2,0,0.4,0,0.6c0,0.6,0,1.2,0,1.79c0,0.2,0,0.4,0,0.6c0,0.6,0,1.2,0,1.79
		c0,0.46-0.01,0.93-0.01,1.39c0,0.07-0.01,0.15-0.01,0.22c-0.01,0.02-0.01,0.04-0.02,0.06c0,0.04,0,0.08,0,0.12
		c-0.08,0.2-0.17,0.4-0.25,0.6c-0.08,0.1-0.16,0.2-0.24,0.3c-0.15,0.1-0.3,0.2-0.45,0.3c-0.05,0.01-0.1,0.03-0.14,0.04
		c-0.2,0.03-0.4,0.06-0.6,0.09c-0.2,0-0.4,0-0.6,0c-0.2,0-0.4,0-0.6,0c-0.2,0-0.4,0-0.6,0c-0.2,0-0.4,0-0.6,0c-0.2,0-0.4,0-0.6,0
		c-0.2,0-0.4,0-0.6,0c-0.2,0-0.4,0-0.6,0c-0.2,0-0.4,0-0.6,0c-0.2,0-0.4,0-0.6,0c-0.2,0-0.4,0-0.6,0c-0.2,0-0.4,0-0.6,0
		c-0.2,0-0.4,0-0.6,0c-0.2,0-0.4,0-0.6,0c-0.2,0-0.4,0-0.6,0c-0.2,0-0.4,0-0.6,0c-0.2,0-0.4,0-0.6,0c-0.2,0-0.4,0-0.6,0
		c-0.2,0-0.4,0-0.6,0c-0.2,0-0.4,0-0.6,0c-0.2,0-0.4,0-0.6,0c-0.2,0-0.4,0-0.6,0c-0.2,0-0.4,0-0.6,0c-0.2,0-0.4,0-0.6,0
		c-0.2,0-0.4,0-0.6,0c-0.2,0-0.4,0-0.6,0c-0.2,0-0.4,0-0.6,0c-0.2,0-0.4,0-0.6,0c-0.2,0-0.4,0-0.6,0c-0.2,0-0.4,0-0.6,0
		c-0.2,0-0.4,0-0.6,0c-0.2,0-0.4,0-0.6,0c-0.2,0-0.4,0-0.6,0c-0.2,0-0.4,0-0.6,0c-0.2-0.02-0.4-0.05-0.6-0.07
		c-0.08-0.03-0.16-0.06-0.24-0.09c-0.12-0.09-0.24-0.18-0.36-0.27c-0.09-0.1-0.18-0.2-0.26-0.3c-0.08-0.2-0.16-0.4-0.24-0.6
		c0-0.54,0-1.08-0.01-1.63c0-0.05,0-0.11-0.01-0.16c0-0.2,0-0.4,0-0.6c0-0.6,0-1.19,0-1.79c0-0.2,0-0.4,0-0.6C0,8.3,0,7.7,0,7.1
		c0-0.2,0-0.4,0-0.6c0-0.6,0-1.19,0-1.79c0-0.2,0-0.4,0-0.6c0-0.44,0-0.88,0.01-1.31c0-0.16,0-0.32,0.01-0.48
		C0.05,2.21,0.09,2.1,0.13,1.99c0.03-0.07,0.07-0.08,0.13-0.02c0.08,0.07,0.17,0.14,0.25,0.21c0.06,0.05,0.12,0.1,0.18,0.15
		c0.14,0.12,0.28,0.24,0.42,0.36c0.1,0.08,0.2,0.16,0.3,0.24c0.1,0.09,0.2,0.18,0.3,0.27c0.02,0.03,0.04,0.05,0.07,0.08
		C1.95,3.41,2.12,3.56,2.3,3.7C2.48,3.85,2.66,4,2.84,4.15C3.06,4.34,3.28,4.53,3.5,4.71c0.02,0.02,0.04,0.04,0.06,0.06
		c0.18,0.15,0.36,0.3,0.54,0.45c0.01,0.01,0.02,0.02,0.03,0.03c0.02,0.02,0.04,0.04,0.06,0.06c0.02,0.01,0.04,0.02,0.06,0.04
		C4.4,5.47,4.55,5.6,4.7,5.73c0.09,0.08,0.18,0.16,0.27,0.24c0.1,0.08,0.2,0.16,0.29,0.24c0.18,0.16,0.35,0.32,0.53,0.47
		c0.53,0.45,1.06,0.91,1.6,1.36c0.1,0.08,0.2,0.15,0.3,0.23c0.02,0.02,0.04,0.04,0.06,0.06c0.1,0.09,0.19,0.18,0.3,0.26
		C8.12,8.66,8.2,8.72,8.28,8.78C8.32,8.82,8.36,8.86,8.4,8.9C8.46,8.95,8.51,9,8.56,9.04c0.1,0.08,0.21,0.17,0.32,0.25
		c0.08,0.07,0.16,0.14,0.24,0.21c0.12,0.1,0.24,0.2,0.36,0.3c0.11,0.1,0.22,0.2,0.33,0.3c0.09,0.08,0.18,0.15,0.27,0.23
		c0.1,0.09,0.19,0.18,0.3,0.26c0.23,0.18,0.48,0.33,0.78,0.37c0.05,0.01,0.1,0.03,0.15,0.03c0.18,0,0.35,0,0.53,0
		c0.04,0,0.09-0.02,0.13-0.03c0.45-0.09,0.79-0.36,1.11-0.66c0.08-0.07,0.16-0.14,0.24-0.21c0.12-0.1,0.24-0.2,0.36-0.3
		c0.1-0.09,0.2-0.18,0.3-0.27c0.1-0.08,0.2-0.16,0.3-0.24c0.15-0.13,0.3-0.26,0.45-0.39c0.05-0.04,0.1-0.08,0.15-0.12
		c0.18-0.16,0.36-0.32,0.54-0.48c0.02-0.01,0.04-0.02,0.06-0.03c0.8-0.68,1.59-1.36,2.39-2.04c0.11-0.1,0.22-0.19,0.33-0.29
		c0.09-0.07,0.18-0.15,0.27-0.22c0.16-0.14,0.32-0.27,0.48-0.41c0.04-0.03,0.08-0.07,0.12-0.1c0.18-0.16,0.36-0.31,0.54-0.47
		c0.03-0.03,0.06-0.06,0.09-0.09c0.2-0.17,0.39-0.34,0.59-0.51c0.1-0.07,0.2-0.14,0.29-0.22c0.12-0.11,0.24-0.23,0.36-0.34
		c0.17-0.15,0.35-0.28,0.52-0.42c0.1-0.08,0.2-0.16,0.3-0.24c0.1-0.09,0.2-0.18,0.3-0.27c0.13-0.11,0.26-0.22,0.39-0.33
		C22.49,2.26,22.56,2.21,22.63,2.15z"/>
	<path class="st104" d="M22.15,0.13c-0.04,0.05-0.08,0.1-0.12,0.15c-0.16,0.14-0.32,0.28-0.48,0.42c-0.04,0.03-0.08,0.06-0.12,0.09
		c-0.19,0.16-0.38,0.32-0.57,0.48c-0.02,0.02-0.04,0.04-0.06,0.06c-0.22,0.19-0.44,0.38-0.66,0.56c-0.02,0.01-0.04,0.03-0.06,0.04
		c-0.01,0.01-0.02,0.02-0.03,0.02c-0.2,0.18-0.4,0.35-0.6,0.53c-0.14,0.12-0.28,0.23-0.41,0.34c-0.1,0.09-0.2,0.18-0.3,0.27
		c-0.1,0.08-0.2,0.16-0.3,0.24c-0.15,0.13-0.3,0.26-0.45,0.39c-0.05,0.04-0.1,0.08-0.15,0.12c-0.18,0.16-0.36,0.32-0.54,0.48
		c-0.02,0.01-0.04,0.02-0.06,0.03c-0.82,0.7-1.64,1.39-2.45,2.09c-0.08,0.07-0.16,0.14-0.24,0.21c-0.12,0.1-0.24,0.2-0.36,0.3
		c-0.12,0.1-0.24,0.2-0.36,0.31c-0.06,0.06-0.12,0.11-0.18,0.17c-0.19,0.16-0.38,0.32-0.57,0.48c-0.01,0.01-0.02,0.02-0.03,0.03
		c-0.18,0.15-0.36,0.3-0.54,0.44c-0.21,0.17-0.43,0.33-0.65,0.49c-0.2,0.01-0.4,0.01-0.6,0.02c-0.07-0.04-0.15-0.07-0.21-0.12
		c-0.32-0.26-0.64-0.53-0.96-0.8c-0.04-0.03-0.08-0.06-0.12-0.09C9.83,7.72,9.67,7.59,9.51,7.45C9.45,7.4,9.39,7.35,9.33,7.3
		C9.19,7.18,9.06,7.06,8.92,6.94C8.81,6.85,8.7,6.76,8.59,6.67C8.5,6.59,8.41,6.51,8.32,6.43c-0.1-0.09-0.19-0.18-0.29-0.27
		c-0.25-0.21-0.5-0.43-0.75-0.64C7.02,5.32,6.77,5.11,6.52,4.9c0-0.01-0.01-0.01-0.01-0.01C6.3,4.71,6.1,4.54,5.9,4.37
		C5.88,4.35,5.86,4.33,5.83,4.31C5.66,4.16,5.48,4.01,5.3,3.86c-0.06-0.05-0.12-0.1-0.18-0.15C4.98,3.59,4.84,3.47,4.7,3.35
		C4.61,3.27,4.52,3.19,4.43,3.11C4.32,3.02,4.21,2.93,4.1,2.84C3.97,2.73,3.85,2.62,3.72,2.52C3.65,2.45,3.58,2.39,3.51,2.33
		C3.34,2.19,3.17,2.05,3,1.92c-0.03-0.03-0.06-0.06-0.1-0.09C2.73,1.66,2.54,1.5,2.36,1.34C2.33,1.32,2.31,1.31,2.28,1.29
		C2.09,1.12,1.9,0.96,1.71,0.79c-0.04-0.03-0.08-0.07-0.12-0.1C1.43,0.56,1.27,0.42,1.11,0.28C1.07,0.23,1.03,0.18,1,0.13
		c0.04-0.02,0.08-0.04,0.12-0.06c0.2-0.02,0.4-0.05,0.6-0.07c0.2,0,0.4,0,0.6,0c0.2,0,0.4,0,0.6,0c0.2,0,0.4,0,0.6,0
		c0.2,0,0.4,0,0.6,0c0.2,0,0.4,0,0.6,0c0.2,0,0.4,0,0.6,0c0.2,0,0.4,0,0.6,0c0.2,0,0.4,0,0.6,0c0.2,0,0.4,0,0.6,0c0.2,0,0.4,0,0.6,0
		c0.2,0,0.4,0,0.6,0c0.2,0,0.4,0,0.6,0c0.2,0,0.4,0,0.6,0c0.2,0,0.4,0,0.6,0c0.2,0,0.4,0,0.6,0c0.2,0,0.4,0,0.6,0c0.2,0,0.4,0,0.6,0
		c0.2,0,0.4,0,0.6,0c0.2,0,0.4,0,0.6,0c0.2,0,0.4,0,0.6,0c0.2,0,0.4,0,0.6,0c0.2,0,0.4,0,0.6,0c0.2,0,0.4,0,0.6,0c0.2,0,0.4,0,0.6,0
		c0.2,0,0.4,0,0.6,0c0.2,0,0.4,0,0.6,0c0.2,0,0.4,0,0.6,0c0.2,0,0.4,0,0.6,0c0.2,0,0.4,0,0.6,0c0.2,0,0.4,0,0.6,0c0.2,0,0.4,0,0.6,0
		c0.2,0,0.4,0,0.6,0c0.2,0,0.4,0,0.6,0c0.2,0.03,0.4,0.06,0.6,0.09C22.07,0.1,22.11,0.11,22.15,0.13z"/>
</g>
</svg>
